<svg width="24" height="24" viewBox="0 0 24 24" fill="none" xmlns="http://www.w3.org/2000/svg">
<path fill-rule="evenodd" clip-rule="evenodd" d="M16.535 1.066C15.362 1.012 14.988 1 12 1C9.012 1 8.638 1.013 7.466 1.066C6.294 1.119 5.494 1.306 4.794 1.577C4.061 1.854 3.396 2.287 2.846 2.847C2.286 3.396 1.854 4.06 1.578 4.794C1.306 5.494 1.12 6.294 1.066 7.464C1.012 8.639 1 9.013 1 12C1 14.988 1.013 15.362 1.066 16.535C1.119 17.705 1.306 18.505 1.578 19.205C1.85401 19.9391 2.28672 20.6042 2.846 21.154C3.396 21.714 4.061 22.146 4.794 22.422C5.494 22.694 6.294 22.88 7.464 22.934C8.638 22.988 9.012 23 12 23C14.988 23 15.362 22.987 16.535 22.934C17.705 22.881 18.505 22.694 19.205 22.422C19.9391 22.146 20.6042 21.7133 21.154 21.154C21.7136 20.6047 22.1467 19.9399 22.423 19.206C22.694 18.506 22.88 17.706 22.934 16.536C22.988 15.361 23 14.987 23 12C23 9.012 22.987 8.638 22.934 7.466C22.881 6.294 22.694 5.494 22.423 4.794C22.1463 4.06008 21.7129 3.39531 21.153 2.846C20.604 2.2865 19.9395 1.85344 19.206 1.577C18.506 1.306 17.706 1.12 16.536 1.066H16.535ZM7.555 3.046C8.715 2.993 9.063 2.982 12 2.982C14.937 2.982 15.285 2.993 16.445 3.046C17.518 3.095 18.1 3.274 18.488 3.425C19.001 3.625 19.368 3.862 19.753 4.247C20.118 4.60205 20.3988 5.03428 20.575 5.512C20.726 5.9 20.905 6.482 20.954 7.555C21.007 8.715 21.018 9.063 21.018 12C21.018 14.937 21.007 15.285 20.954 16.445C20.905 17.518 20.726 18.1 20.575 18.488C20.399 18.965 20.118 19.398 19.753 19.753C19.398 20.118 18.965 20.399 18.488 20.575C18.1 20.726 17.518 20.905 16.445 20.954C15.285 21.007 14.938 21.018 12 21.018C9.062 21.018 8.715 21.007 7.555 20.954C6.482 20.905 5.9 20.726 5.512 20.575C4.999 20.375 4.632 20.138 4.247 19.753C3.882 19.398 3.601 18.965 3.425 18.488C3.274 18.1 3.095 17.518 3.046 16.445C2.993 15.285 2.982 14.937 2.982 12C2.982 9.063 2.993 8.715 3.046 7.555C3.095 6.482 3.274 5.9 3.425 5.512C3.625 4.999 3.862 4.632 4.247 4.247C4.60207 3.88207 5.0343 3.60121 5.512 3.425C5.9 3.274 6.482 3.095 7.555 3.046ZM13.405 15.391C12.6203 15.7176 11.7466 15.7617 10.9331 15.5157C10.1195 15.2697 9.41661 14.7489 8.94439 14.0422C8.47217 13.3356 8.25994 12.4869 8.34395 11.6411C8.42796 10.7953 8.80299 10.005 9.405 9.405C9.78876 9.02148 10.2528 8.72781 10.7637 8.54515C11.2745 8.36248 11.8196 8.29536 12.3595 8.34862C12.8994 8.40187 13.4208 8.57418 13.8862 8.85313C14.3515 9.13208 14.7493 9.51074 15.0507 9.96185C15.3521 10.413 15.5498 10.9253 15.6295 11.462C15.7092 11.9986 15.6688 12.5463 15.5115 13.0655C15.3541 13.5847 15.0835 14.0626 14.7193 14.4647C14.355 14.8668 13.9062 15.1832 13.405 15.391ZM15.998 8.002C15.473 7.47697 14.8497 7.0605 14.1637 6.77636C13.4777 6.49222 12.7425 6.34597 12 6.34597C11.2575 6.34597 10.5223 6.49222 9.8363 6.77636C9.15032 7.0605 8.52702 7.47697 8.002 8.002C7.47698 8.52702 7.0605 9.15032 6.77636 9.8363C6.49222 10.5223 6.34597 11.2575 6.34597 12C6.34597 12.7425 6.49222 13.4777 6.77636 14.1637C7.0605 14.8497 7.47698 15.473 8.002 15.998C9.06234 17.0583 10.5005 17.654 12 17.654C13.4995 17.654 14.9377 17.0583 15.998 15.998C17.0583 14.9377 17.654 13.4995 17.654 12C17.654 10.5005 17.0583 9.06234 15.998 8.002ZM5.092 7.188C4.96189 7.06527 4.85774 6.91768 4.7857 6.75397C4.71365 6.59027 4.67519 6.41377 4.67258 6.23493C4.66998 6.05609 4.70328 5.87855 4.77052 5.71281C4.83776 5.54707 4.93757 5.39651 5.06404 5.27004C5.19051 5.14357 5.34107 5.04376 5.50681 4.97652C5.67255 4.90928 5.85009 4.87598 6.02893 4.87858C6.20777 4.88119 6.38427 4.91965 6.54797 4.9917C6.71168 5.06374 6.85927 5.1679 6.982 5.298C7.22069 5.55103 7.35137 5.88712 7.3463 6.23493C7.34123 6.58274 7.20081 6.91488 6.95484 7.16084C6.70888 7.40681 6.37674 7.54723 6.02893 7.5523C5.68112 7.55737 5.34503 7.42669 5.092 7.188Z" fill="url(#paint0_linear_776_11363)"/>
<defs>
<linearGradient id="paint0_linear_776_11363" x1="1" y1="0.999999" x2="23" y2="24.5" gradientUnits="userSpaceOnUse">
<stop stop-color="#405DE6"/>
<stop offset="0.109375" stop-color="#5851DB"/>
<stop offset="0.21875" stop-color="#833AB4"/>
<stop offset="0.328125" stop-color="#C13584"/>
<stop offset="0.4375" stop-color="#E1306C"/>
<stop offset="0.546875" stop-color="#FD1D1D"/>
<stop offset="0.65625" stop-color="#F56040"/>
<stop offset="0.765625" stop-color="#F77737"/>
<stop offset="0.875" stop-color="#FCAF45"/>
<stop offset="0.984375" stop-color="#FFDC80"/>
<stop offset="0.984475" stop-color="#FFDC80"/>
</linearGradient>
</defs>
</svg>
