<svg width="24" height="24" viewBox="0 0 24 24" fill="none" xmlns="http://www.w3.org/2000/svg">
<path fill-rule="evenodd" clip-rule="evenodd" d="M14.3263 5.7251C12.3562 6.53341 8.41787 8.20836 2.51285 10.7483C1.55401 11.1249 1.05095 11.4933 1.00537 11.8533C0.927718 12.4632 1.70087 12.7032 2.75088 13.0282C2.89437 13.0732 3.04292 13.1182 3.19485 13.1682C4.22966 13.4999 5.62067 13.8882 6.34318 13.9032C6.99985 13.9165 7.73249 13.6499 8.5411 13.1032C14.0578 9.425 16.9057 7.56671 17.0846 7.52672C17.2112 7.49838 17.3868 7.46172 17.505 7.56671C17.6231 7.67005 17.6113 7.86671 17.5995 7.92004C17.5219 8.2417 14.4934 11.0233 12.9234 12.4632C12.4339 12.9116 12.0878 13.2299 12.0169 13.3032C11.8582 13.4649 11.6962 13.6199 11.5409 13.7682C10.5786 14.6815 9.85951 15.3682 11.5814 16.4881C12.4086 17.0264 13.0703 17.4714 13.7304 17.9148C14.4512 18.3997 15.1703 18.8831 16.1021 19.4864C16.3385 19.6397 16.5647 19.798 16.7858 19.953C17.6248 20.5447 18.3794 21.0747 19.3112 20.9913C19.8514 20.9413 20.4119 20.4397 20.6955 18.9414C21.3657 15.3982 22.6858 7.72504 22.9913 4.5618C23.0099 4.29917 22.9986 4.0353 22.9576 3.77516C22.933 3.56505 22.8294 3.37172 22.6672 3.23351C22.4258 3.03851 22.0511 2.99685 21.8822 3.00018C21.1209 3.01351 19.9527 3.41517 14.3263 5.7251Z" fill="#0088CC"/>
</svg>
