<svg width="48" height="48" viewBox="0 0 48 48" xmlns="http://www.w3.org/2000/svg">
<path d="M21.5556 32.6735C22.1555 32.5466 25.8109 32.5466 26.4108 32.6735C26.9237 32.7919 27.4782 33.0687 27.4782 33.673C27.4484 34.2483 27.1109 34.7583 26.6446 35.0822C26.0399 35.5536 25.3303 35.8521 24.5885 35.9597C24.1782 36.0128 23.7751 36.014 23.3792 35.9597C22.6361 35.8521 21.9265 35.5536 21.3231 35.081C20.8555 34.7583 20.518 34.2483 20.4882 33.673C20.4882 33.0687 21.0428 32.7919 21.5556 32.6735ZM24.0541 12C26.5503 12 29.1001 13.1844 30.6147 15.1496C31.5975 16.415 32.0483 17.6792 32.0483 19.6444V20.1556C32.0483 21.6627 32.4466 22.551 33.3232 23.5747C33.9875 24.3289 34.1998 25.297 34.1998 26.3472C34.1998 27.3963 33.8551 28.3922 33.1646 29.2007C32.2606 30.17 30.9857 30.7888 29.6845 30.8964C27.7989 31.0571 25.9122 31.1925 24.0004 31.1925C22.0874 31.1925 20.2019 31.1115 18.3163 30.8964C17.014 30.7888 15.739 30.17 14.8362 29.2007C14.1457 28.3922 13.7998 27.3963 13.7998 26.3472C13.7998 25.297 14.0133 24.3289 14.6764 23.5747C15.5804 22.551 15.9525 21.6627 15.9525 20.1556V19.6444C15.9525 17.626 16.4558 16.3062 17.4922 15.0142C19.0331 13.13 21.503 12 23.9467 12H24.0541Z" fill="white"/>
</svg>
