<svg width="25" height="24" viewBox="0 0 25 24" fill="none" xmlns="http://www.w3.org/2000/svg">
<path d="M22.5557 7L14.3907 12.7154C13.7296 13.1783 13.399 13.4097 13.0394 13.4993C12.7218 13.5785 12.3896 13.5785 12.0719 13.4993C11.7123 13.4097 11.3818 13.1783 10.7206 12.7154L2.55566 7M17.7557 20H7.35566C5.67551 20 4.83543 20 4.19369 19.673C3.62921 19.3854 3.17026 18.9265 2.88264 18.362C2.55566 17.7202 2.55566 16.8802 2.55566 15.2V8.8C2.55566 7.11984 2.55566 6.27976 2.88264 5.63803C3.17026 5.07354 3.62921 4.6146 4.19369 4.32698C4.83543 4 5.67551 4 7.35566 4H17.7557C19.4358 4 20.2759 4 20.9176 4.32698C21.4821 4.6146 21.9411 5.07354 22.2287 5.63803C22.5557 6.27976 22.5557 7.11984 22.5557 8.8V15.2C22.5557 16.8802 22.5557 17.7202 22.2287 18.362C21.9411 18.9265 21.4821 19.3854 20.9176 19.673C20.2759 20 19.4358 20 17.7557 20Z" stroke="#9999AB" stroke-width="2" stroke-linecap="round" stroke-linejoin="round"/>
</svg>
